<svg xmlns="http://www.w3.org/2000/svg" width="400" height="122">
<path d="M160.4 19.3C159.2 19.6 155.3 22.9 154.2 24.5 154 24.8 153.5 25.5 153.1 26 152.1 27.2 150.1 30.3 149.2 32.3 148.3 33.8 147.8 34.9 147.3 35.7 147 36.1 146.8 36.6 146.8 36.7 146.8 36.8 146.6 37.3 146.3 37.8 145.9 38.3 145.6 38.9 145.6 39.2 145.5 39.5 145.2 40.2 144.9 40.8 144.6 41.3 144.3 41.9 144.3 42 144.3 42.2 144.1 42.8 143.8 43.4 143.5 44.1 143.2 44.9 143.1 45.2 143 45.5 142.8 46.2 142.5 46.7 142.2 47.2 141.9 48.1 141.8 48.7 141.6 49.2 141.3 50.1 141.1 50.5 140.9 51 140.6 51.7 140.6 52.3 140.5 52.8 140.3 53.7 140 54.3 139.7 54.8 139.4 55.9 139.3 56.8 139.1 57.7 138.8 58.8 138.6 59.4 138.3 60 138.1 61.1 138 62.2 137.9 63.1 137.7 64.5 137.5 65.2 137.1 66.5 136.9 69.1 136.8 71.7 136.8 73.7 137.2 74.6 138.9 76.2 139.6 76.9 140.3 77.7 140.4 78 140.6 78.3 141 78.7 141.3 78.9 141.6 79 142.2 79.7 142.7 80.2 143.4 80.9 144 81.5 144.8 81.9L146 82.5 148.4 82.6C150.4 82.6 150.9 82.5 151.3 82.3 154.7 80.5 155 80.3 157.2 78.3 158.8 76.8 159.8 75.7 161 74.1 161.3 73.7 161.8 73 162.1 72.7 162.4 72.4 162.8 71.8 162.9 71.5 163.1 71.2 163.4 70.6 163.7 70.3 165 68.3 165.3 67.7 165.5 67.1 165.6 66.7 165.8 66.3 166 66.1 166.2 65.9 166.4 65.4 166.6 64.9 166.8 64.5 167.1 63.7 167.3 63.2 167.6 62.7 167.9 61.9 168 61.5 168.1 61.1 168.4 60.3 168.6 59.8 168.9 59.2 169.1 58.3 169.2 57.2 169.3 56.3 169.4 55.2 169.6 54.9 170.1 53.6 169.6 50.2 168.6 48.7 168.4 48.4 168.1 47.8 167.9 47.5 167.4 46.6 166.2 45.6 164.8 44.8 162.7 43.4 160.6 43.8 157.7 46 157.2 46.3 156.5 46.8 156.1 47.1 155.6 47.5 154.7 48.3 154.1 48.9 150.7 52.4 150.8 52.4 150.7 51.3 150.7 50.8 150.8 50.5 151.1 50 151.3 49.7 151.5 49.1 151.6 48.7 151.7 48.3 151.9 47.7 152.2 47.4 152.4 47 152.7 46.4 152.9 45.9 153.1 45.4 153.3 44.9 153.5 44.7 153.7 44.6 153.9 44.1 154.1 43.6 154.2 43.2 154.5 42.6 154.7 42.3 154.9 42 155.3 41.4 155.5 41 155.9 40.3 156.1 39.9 157.4 38.2 157.7 37.8 158 37.3 158 37.3 158 37.2 158.2 36.8 158.5 36.4 158.8 36.1 159.2 35.5 159.4 35.2 159.6 34.8 160.1 34.2 160.4 33.7 160.8 33.2 162.8 31 164.9 29 166.9 26.9 168.7 25 168.8 24.8 169 24 166 21.6 163.2 20.2 162.7 20 161.9 19.7 161.6 19.5 161.2 19.3 160.9 19.2 160.8 19.2 160.8 19.2 160.6 19.2 160.4 19.3M363.3 20.1C361.9 21.2 359.4 24.1 358.6 25.5 358.4 25.8 358.1 26.3 357.9 26.5 357.3 27.5 356.2 29.2 356.2 29.4 356.2 29.5 355.9 29.9 355.7 30.3 355.4 30.7 355 31.3 354.8 31.7 354.6 32.1 354.4 32.5 354.2 32.7 353.9 33.1 347.3 46.2 347.3 46.5 347.3 46.7 347.1 47.1 346.9 47.5 346.6 47.9 346.3 48.6 346.2 49.1 346.1 49.5 345.8 50.1 345.6 50.5 345.3 50.8 345 51.6 344.9 52.1 344.8 52.6 344.5 53.4 344.2 53.7 344 54.1 343.7 54.7 343.7 55.2 343.6 55.7 343.3 56.3 343.1 56.7 342.9 57 342.6 57.6 342.5 58.1 342.4 58.5 342.1 59.4 341.8 60 341.6 60.5 341.3 61.5 341.2 62.1 341.1 62.6 340.8 63.6 340.5 64.2 340.2 64.8 340 65.7 339.9 66.3 339.9 66.9 339.6 68 339.4 68.7 338.7 70.7 338.6 74 339.2 76 340.2 79.5 342.6 82.2 345.1 82.8 347.2 83.3 347.4 83.1 347.2 80.5 347.1 78.5 347.4 75.8 347.9 74.5 348.1 73.9 348.4 72.9 348.5 72.3 348.6 71.7 348.9 70.8 349.1 70.3 349.4 69.7 349.7 69 349.8 68.6 349.8 68.3 350.1 67.8 350.3 67.5 350.5 67.2 350.9 66.6 351.2 66 351.7 65 352.2 64.2 352.9 63.4 353.1 63.1 353.5 62.6 353.7 62.3 353.8 61.9 354.3 61.2 354.7 60.6 357.6 56.7 357.7 56.7 359.5 54.9 362.5 51.9 363.9 51 364.5 51.7 364.7 52 364.5 52.7 364.2 52.9 364.1 52.9 363.9 53.3 363.7 53.8 363.4 54.7 363.2 55 361.3 57.1 359.5 59.2 357.2 61.4 354.6 63.5L353.6 64.2 353.7 66.1C353.8 67.5 353.9 68.3 354.3 69.5 354.6 70.4 354.9 71.7 355 72.6 355.1 73.5 355.3 74.4 355.6 74.9 355.8 75.4 356.1 76.2 356.2 76.8 356.3 77.4 356.6 78.4 356.8 79 357.1 79.6 357.4 80.5 357.5 81 357.6 81.5 357.9 82.1 358.1 82.3 358.3 82.5 358.6 83.1 358.7 83.5 360.4 87.8 365 89.9 368.6 88 369.1 87.7 369.7 87.5 369.8 87.5 370.7 87.5 373.5 84.6 373.5 83.6 373.5 83.2 372.2 82 371.1 81.4 370.4 80.9 367 77.4 366.4 76.5 366.1 76.1 365.8 75.5 365.6 75.3 365.3 75 365 74.5 364.8 74.1 364.7 73.6 364.3 73.1 364.1 72.8 363.9 72.5 363.6 72.1 363.6 71.9 363.5 71.6 363.2 71 363 70.5 362.4 69.4 361.9 67.5 362.1 67 362.2 66.8 362.7 66.4 364.6 65.2 365.4 64.8 368 62.2 368.8 61.1 369.4 60.3 369.8 59.7 370.7 58 372.1 55.3 372.4 52.5 371.5 49.9 371.3 49.4 371.1 48.7 371.1 48.5 371 48 370.5 47.4 369.1 46L368.3 45.1 366.6 45.2C365.1 45.3 364.8 45.3 363.7 45.9 363 46.2 362.3 46.5 362.3 46.5 362.2 46.5 361.7 46.8 361.3 47.1 360.9 47.5 360.2 48 359.8 48.3 359.5 48.5 358.6 49.2 357.9 49.8 356.6 50.9 356.3 51 356.1 50.5 355.9 50 356.2 49.2 356.7 48.3 357 47.9 357.6 46.9 358 46.2 358.4 45.4 359.1 44.3 359.6 43.6 360.7 41.9 361.6 40.6 362.2 39.6 362.5 39.1 363.2 38.2 363.7 37.5 364.2 36.9 364.8 36.1 365 35.8 365.2 35.4 365.4 35.2 365.5 35.2 365.6 35.2 366 34.7 366.4 34.1 366.9 33.6 368.4 32 369.8 30.6L372.3 28.1 372.2 27.2C372.2 26.4 372.2 26.1 371.7 25.5 371.5 25.1 371.1 24.5 371 24.3 370.4 22.8 368.1 20.7 366.3 19.9 364.6 19.2 364.4 19.2 363.3 20.1M295.9 19.8C295.4 19.9 294.9 20.3 294.2 21.1 293.7 21.7 293.1 22.5 292.9 22.8 292.6 23 292 23.8 291.6 24.5 291.1 25.1 290.4 26.2 289.9 26.8 289.4 27.4 288.8 28.3 288.6 28.7 287.9 29.9 287.4 30.5 286.6 31.8 286.2 32.4 285.8 33 285.8 33.1 285.8 33.2 285.7 33.5 285.4 33.7 285.2 34 284.8 34.6 284.6 35.1 281.2 41.8 279.8 44.7 279.6 45.4 279.4 45.9 279.2 46.5 279 46.7 278.8 47 278.6 47.7 278.4 48.3 278.3 48.9 278 49.7 277.8 50.1 277.5 50.4 277.3 51.1 277.2 51.6 277.1 52.1 276.8 52.9 276.6 53.3 276.4 53.7 276.1 54.6 276 55.2 275.9 55.8 275.6 56.6 275.4 57.1 275.2 57.5 274.9 58.5 274.7 59.3 274.5 60.1 274.2 61.1 274 61.6 273.8 62 273.6 62.9 273.5 63.6 273.4 64.2 273.1 65.3 272.9 66 272.7 66.7 272.4 67.9 272.3 68.8 272.2 69.6 271.9 71.4 271.7 72.8 271 76.2 271 78 271.6 79.5 271.9 80.1 272.3 80.9 272.4 81.3 273.6 84.2 276 83.9 277.5 80.8 277.9 80.1 278.6 78.6 279.2 77.5 279.7 76.4 280.5 74.9 280.9 74.2 281.3 73.5 281.8 72.6 282 72.3 282.2 71.9 282.6 71.3 282.9 70.9 283.2 70.5 283.7 69.8 284 69.3 284.7 68.4 285.8 66.8 287.6 64.5 289.2 62.5 292.5 59.2 293 59.2 293.5 59.2 293.4 60.3 292.8 61.5 292.3 62.4 291.6 63.9 291.1 65.5 290.9 66.1 290.5 66.9 290.3 67.3 290.2 67.7 289.9 68.5 289.7 69.1 289.6 69.7 289.3 70.5 289.1 70.9 288.3 72.5 288.2 76.8 288.9 78 290.7 80.7 292.4 81.3 295.5 80.3 300.3 78.7 301.9 77.1 300.8 75 300.5 74.3 300.3 74.2 298.8 74 298.3 74 297.9 73.8 297.8 73.6 297.5 73.2 298.5 70.4 300 67.4 300.2 67.1 300.6 66.3 300.9 65.8 301.1 65.3 301.4 64.8 301.5 64.7 301.6 64.7 301.9 64.2 302.1 63.7 302.4 63.2 302.8 62.5 303 62.1 303.2 61.8 303.7 61 304.1 60.4 304.5 59.8 304.9 59.1 305.2 58.8 305.4 58.5 305.8 58 306.1 57.6 307.1 56 308.3 54.4 309.5 53.1 310.8 51.6 310.7 51.2 308.5 49.2 306.6 47.3 305.6 46.7 303 46.1L301.3 45.8 299.6 46.2C296.5 47 294.5 48.4 289.6 53.3 288 54.8 286.5 56.1 286.4 56.1 285.7 56.3 285.8 55 286.5 53.5 286.8 53 287 52.5 287 52.3 287 52.1 287.7 50.7 290.8 44.5 291.1 44 291.4 43.5 291.5 43.4 291.6 43.3 291.9 42.9 292.1 42.5 292.4 41.7 293.4 40.2 294.7 38.5 295 38 295.5 37.3 295.8 36.9 296 36.6 296.4 36 296.6 35.7 296.9 35.4 297.4 34.8 297.8 34.3 298.1 33.8 298.8 33.1 299.2 32.6 299.6 32.1 300.5 31 301.3 30.2 302 29.3 303.4 27.8 304.3 26.8 306.9 24.1 306.8 23.2 303.8 21.6 300.9 20 297.4 19.2 295.9 19.8M52.3 27.2C51.9 27.6 51.6 28.1 51.6 28.4 51.4 29.8 51.3 30.1 50.9 30.9 50.2 32.5 49.9 36.6 50.4 39.5 50.9 42.8 54 44.7 55.2 42.5 55.8 41.4 58.5 37.9 60.1 36.2 60.6 35.7 61.2 35 61.4 34.7 61.6 34.3 62 33.9 62.3 33.7 63.6 32.8 62.3 30.2 59.8 29 59.4 28.8 58.8 28.4 58.5 28.1 58.2 27.9 57.9 27.7 57.8 27.7 57.7 27.7 57 27.4 56.4 27.1 54.6 26.2 53.1 26.2 52.3 27.2M263.3 41.7C263 41.8 262.5 42.1 262.2 42.3 261.8 42.5 261.5 42.7 261.3 42.7 260.2 42.7 256.9 45.8 255.7 48.1 255.4 48.7 255 49.4 254.9 49.6 254.8 49.8 254.7 50 254.7 50.2 254.7 50.4 254.5 51 254.2 51.6 253.7 53.1 253.5 55.1 253.9 56.3 254.4 58.1 254.6 58.9 254.8 60.3 254.9 61 255.1 62 255.3 62.4 256.4 64.9 255.8 66.1 253.2 66.5 252.6 66.6 251.7 66.9 251 67.3 250.4 67.6 249.9 67.8 249.8 67.8 249.7 67.8 249.4 68 249.1 68.2 248.8 68.4 248.4 68.7 248.1 68.9 246.1 69.9 242.5 74.8 242.1 76.9 241.9 78.2 241.1 78.2 240.1 76.9 239.3 76 239.3 72.6 239.9 70.7 240.1 70 240.4 68.7 240.6 67.9 240.7 67.1 240.9 66.1 241.1 65.7 241.2 65.3 241.6 64.2 241.8 63.4 242.1 62.6 242.5 61.5 242.7 61 243 60.5 243.2 59.9 243.2 59.7 243.2 59.5 243.4 59 243.6 58.6 243.8 58.1 244.2 57.3 244.4 56.7 244.6 56.1 245 55.4 245.2 55.1 245.5 54.7 245.6 54.3 245.6 53.4L245.7 52.2 244.7 51.2C244.1 50.6 243.6 50.3 243.2 50.2 242.8 50.2 242.1 49.9 241.4 49.6 240.2 49.1 239.6 49.1 238.5 49.7 237.8 50 237.2 49.9 237.2 49.5 237.2 48.7 232.9 45.5 231.8 45.5 231.2 45.5 228 46.7 227.4 47.1 227.1 47.3 226.7 47.6 226.3 47.7 225.3 48.3 220.8 52.4 220.8 52.8 220.8 52.9 220.5 53.3 220.2 53.8 219.8 54.2 219.3 54.8 219.1 55.1 218.8 55.4 218.4 56.1 218.2 56.6 217.9 57.2 217.6 57.7 217.5 57.8 217.3 57.9 217.1 58.3 217 58.5 216.9 58.8 216.6 59.3 216.4 59.7 216.2 60 215.9 60.6 215.7 61.1 215.6 61.5 215.2 62.3 215 62.8 214.7 63.3 214.5 63.9 214.5 64.1 214.5 64.4 214.3 65.1 214 65.8 212.8 68.7 212.9 74.6 214.1 77.1 215.1 79.1 217 81 218.2 81.3 219.5 81.5 222.1 81.3 222.6 80.9 222.9 80.7 223.4 80.3 223.8 80.2 224.2 80 225.2 79.2 226 78.6 227.4 77.4 227.9 76.8 229.4 74.9 230.3 73.6 230.5 73.8 230.8 76.5 231 78.7 231.5 79.7 232.9 80.8 233.8 81.4 238.3 81.5 239.5 80.9 240.8 80.2 241.4 80.5 242.1 82.1 243.4 85.7 248.6 88.4 251.6 87 252 86.8 252.9 86.5 253.6 86.4 254.4 86.2 255 86 255.8 85.4 256.4 85 257.2 84.5 257.5 84.2 259.1 83.2 259.6 82.5 261.1 79.8 261.8 78.5 261.9 78.3 262 76.9 262.1 76.1 262.2 75.2 262.4 74.9 262.7 74.3 263 72.7 263 71.6 263 70.5 263.5 70 265.3 69.4 267.1 68.8 267.4 68.4 267.4 67.1 267.4 65.5 267.2 65.3 265.1 65.2 262.9 65 262.9 65.1 263.1 61.8 263.2 57.6 264.2 54.7 265.7 54 267.1 53.4 267.6 54 267.1 55.8 266.6 57.5 266.6 58.2 266.9 58.9 267.8 60.6 269.6 60.5 271 58.8 273.4 55.6 274.2 50.9 272.6 48.7 269.1 43.9 265.3 41 263.3 41.7M93.4 44.3C93.1 44.5 91.7 46.5 91.7 46.8 91.7 46.9 91.4 47.4 91 47.9 90.6 48.5 90.3 49 90.3 49.1 90.3 49.2 90.1 49.7 89.8 50.2 89.4 50.7 89.1 51.3 89 51.7 88.9 52 88.6 52.5 88.4 52.8 88.2 53.2 87.9 53.7 87.8 54 87.7 54.3 87.4 54.9 87.2 55.2 87 55.5 86.7 56.1 86.6 56.5 86.6 56.9 86.3 57.6 86 58 85.7 58.4 85.4 59 85.3 59.4 85.2 59.8 84.9 60.6 84.7 61.2 84.4 61.8 84.1 62.5 84.1 62.8 84 63.2 83.8 63.9 83.5 64.4 83.2 65.1 82.9 65.9 82.8 66.8 82.7 67.6 82.5 68.7 82.2 69.3 81.7 70.7 81.5 75 81.9 76.1 84.2 82.1 86.9 83.4 89 79.5 89.2 79.1 89.4 78.8 89.5 78.7 89.7 78.6 91.1 76.5 91.6 75.6 91.7 75.3 91.9 75 92 75 92.1 75 92.3 74.7 92.5 74.4 92.7 74 93.4 73.1 94 72.3 94.6 71.4 95.3 70.4 95.6 70.1 95.9 69.7 96.6 68.7 97.3 67.8 98 66.9 98.7 66 98.8 65.8 100.8 62.8 102.6 63 101.2 66 100.9 66.6 100.5 67.6 100.3 68.2 100.2 68.8 99.8 69.8 99.6 70.4 99.4 71.1 99.2 71.8 99.2 72.2 99.2 72.5 99 73.3 98.8 74.1 98.5 75.3 98.5 75.4 98.8 76.3 99 76.8 99.2 77.5 99.2 77.8 99.5 79.1 102.7 81.7 104 81.7 104.7 81.7 104.8 81.6 105.9 80.2 106.3 79.7 106.9 79 107.3 78.5 107.6 78.1 108.2 77.3 108.5 76.8 108.8 76.4 109.3 75.7 109.5 75.4 109.8 75.2 110.1 74.7 110.3 74.4 110.4 74.1 110.8 73.6 111.1 73.3 111.3 73 111.8 72.3 112.3 71.8 113.6 70 113.8 69.6 114.6 68.6 115.1 68 115.7 67.2 116 66.8 116.5 66.1 117 65.5 118 64.2 119.2 62.8 119.6 64.5 118.6 66.6 118.4 67.1 118.1 68 118 68.7 117.9 69.4 117.7 70.4 117.6 70.9 117.1 73 117.4 77.2 118.2 78.8 118.8 79.9 119.9 81 120.6 81.3 121.1 81.4 121.6 81.7 121.9 81.9 122.8 82.5 125.5 82.5 127 81.8 129.4 80.9 130.8 80 131.3 79.3 132.4 77.7 130.8 75.2 129 75.9 128.1 76.3 127.2 76.3 127 75.9 126.7 75.3 127.7 70.7 128.5 68.9 128.8 68.2 129 67.5 129.1 67.1 129.2 66.8 129.4 66.2 129.7 65.8 129.9 65.4 130.2 64.6 130.4 64.1 130.5 63.7 130.8 63 131.1 62.7 131.3 62.3 131.5 61.9 131.6 61.7 131.7 61.4 131.9 60.8 132.2 60.3 132.5 59.7 132.8 59 132.9 58.6 133.1 58.3 133.3 57.8 133.5 57.5 133.7 57.2 134 56.6 134.1 56.1 134.2 55.7 134.5 55 134.7 54.7 135.8 53.2 135.7 50.9 134.5 49.6 131.4 46.2 126.6 47.4 121 52.9 119.7 54.1 118.5 55.2 118.3 55.3 118.1 55.3 117.7 55.5 117.5 55.7 117.1 56.1 117 55.8 117.4 55.4 117.5 55.3 117.7 54.7 117.9 54 118 53.4 118.2 52.7 118.3 52.4 118.8 51.2 117.2 49.5 115.2 49 114.8 48.9 114.1 48.6 113.7 48.4 112.4 47.7 109.7 48.1 107.8 49.3 107.5 49.5 106.9 49.9 106.4 50.2 105.9 50.4 105.5 50.7 105.5 50.8 105.5 50.9 105.2 51.2 104.7 51.5 104.1 52 101.1 54.8 100 56.1 99.6 56.6 99.1 56.6 99 56 99 55.7 99.1 55.3 99.6 54.9 99.9 54.5 100.2 54 100.3 53.6 100.5 53.2 100.7 52.7 100.9 52.3 101.4 51.7 101.8 49.8 101.6 49.1 101.4 48.1 98.1 45.6 96.6 45.1 96.1 45 95.5 44.8 95.2 44.6 94.6 44.3 93.6 44.1 93.4 44.3M49 45C47.8 45.4 46 47.1 45.2 48.5 44.9 49 44.6 49.6 44.4 49.8 43.8 50.9 42.7 53.5 42.6 54 42.5 54.3 42.3 54.9 42.1 55.4 41.8 55.8 41.5 56.7 41.4 57.4 41.3 58 41 58.8 40.8 59.1 40.6 59.4 40.4 60.2 40.3 60.9 40.2 61.5 39.9 62.7 39.6 63.4 39.4 64.1 39.1 65.3 39 66 38.9 66.7 38.6 67.7 38.4 68.2 38.2 68.8 37.9 69.9 37.7 70.6 37.6 71.4 37.3 72.5 37.1 73 36.9 73.5 36.6 74.5 36.5 75.2 36.4 75.9 36.1 77 35.8 77.7 35.6 78.4 35.3 79.5 35.2 80.2 35.1 80.8 34.8 81.6 34.6 81.9 34.5 82.2 34.2 83.2 34 84.1 33.8 85 33.5 86 33.3 86.3 33.2 86.7 32.9 87.5 32.7 88.1 32.6 88.7 32.3 89.6 32.1 90 31.9 90.4 31.6 91.2 31.5 91.6 31.4 92.1 31.1 92.8 30.8 93.2 30.6 93.6 30.3 94.2 30.2 94.6 30.1 95 29.9 95.3 29.8 95.4 29.7 95.5 29.4 96 29.2 96.5 27.3 99.9 23.2 100.7 19.9 98.2 17.6 96.6 15.2 99.6 17.1 101.7 17.8 102.5 19.5 103.7 20.2 103.9 20.4 104 21 104.3 21.6 104.5 23.2 105.3 28.4 105.5 30.8 105 32.3 104.6 35.3 102.3 36.2 100.9 36.4 100.5 36.7 100.1 36.9 99.8 37.5 99.2 38.2 98 39.2 96 40.8 92.7 41.2 91.9 41.3 91.2 41.4 90.8 41.7 90.2 41.9 89.9 42.1 89.5 42.4 88.8 42.5 88.2 42.6 87.7 42.9 86.8 43.2 86.2 43.4 85.6 43.7 84.7 43.8 84.2 44 83.7 44.2 82.9 44.4 82.4 44.6 82 44.9 81.1 45 80.5 45.1 79.8 45.4 78.9 45.7 78.4 45.9 77.8 46.2 76.9 46.3 76.3 46.4 75.6 46.7 74.8 46.9 74.3 47.2 73.9 47.4 72.9 47.6 72.2 47.7 71.5 48 70.6 48.2 70.1 48.4 69.6 48.7 68.7 48.8 68.1 49 67.4 49.2 66.5 49.4 66 49.7 65.5 49.9 64.6 50 64 50.1 63.4 50.4 62.4 50.7 61.7 50.9 61.1 51.2 60.1 51.3 59.6 51.4 59 51.8 58.1 52 57.4 52.3 56.8 52.5 56.2 52.5 56.1 52.5 55.9 53.7 53.3 54.2 52.4 54.3 52.2 54.7 51.6 55 51 55.3 50.4 55.6 49.8 55.7 49.7 56.6 48.7 56.7 47.4 56.1 46.8 54.3 45.2 51 44.3 49 45M72.6 44.9C72.1 45 71.3 45.2 70.8 45.3 70.3 45.4 69.6 45.6 69.3 45.8 69.1 46 68.5 46.3 68.1 46.4 67.8 46.6 67.2 46.8 66.9 47.1 66.6 47.3 66.2 47.6 66 47.7 65 48.2 61.9 51.2 60.8 52.7 60.4 53.2 59.9 53.7 59.7 53.9 59.2 54.5 57.7 56.8 57.7 57.1 57.7 57.2 57.5 57.5 57.3 57.7 57 57.9 56.7 58.5 56.5 59 56.3 59.5 56 60.1 55.8 60.4 55.7 60.7 55.4 61.4 55.2 61.9 55.1 62.4 54.8 63.3 54.6 63.7 54.3 64.3 54.1 65.2 54 66.3 53.9 67.3 53.7 68.5 53.6 69.1 53.3 70 53.3 70.1 53.6 71.2 53.7 71.9 53.9 73 54 73.8 54.1 74.7 54.3 75.3 54.5 75.7 54.7 76 55.1 76.7 55.3 77.2 56.1 78.6 58.4 80.7 60.1 81.5 63.9 83.3 66.2 83 71 80.3 73.3 79 77.5 75.1 78.9 73.2 79.1 72.8 79.4 72.5 79.5 72.5 80.4 72.5 80.2 70.6 79.2 69.6 77.8 68.3 77.6 68.4 74.9 71 67.9 77.8 63.5 78.5 62.9 73 62.8 72 62.9 71.8 64 71.3 64.4 71.1 65 70.8 65.3 70.6 65.5 70.5 66.2 70.2 66.7 69.9 67.2 69.7 67.8 69.4 68 69.3 68.2 69.1 68.8 68.9 69.2 68.7 71.9 67.4 77.7 62.9 77.7 62 77.7 61.9 78 61.5 78.3 61.1 78.7 60.7 79 60.2 79 60.1 79 60 79.2 59.6 79.5 59.2 79.8 58.8 80.1 58 80.2 57.6 80.3 57.1 80.5 56.4 80.8 55.9 81.4 54.5 81.8 50 81.3 49 79.8 46.3 75.3 44.2 72.6 44.9M188.1 44.7C188.1 44.8 187.4 44.9 186.5 45.1 185.6 45.2 184.6 45.5 184.3 45.7 183.9 45.9 183.3 46.2 183 46.3 182.7 46.5 182.1 46.8 181.7 47.1 181.3 47.4 180.9 47.7 180.7 47.7 180.6 47.7 179.9 48.2 179.1 48.9 178.4 49.6 177.7 50.2 177.6 50.2 177.3 50.2 173.6 54.9 173 56 172.8 56.4 172.6 56.7 172.5 56.8 172.4 56.8 172.1 57.3 171.8 57.9 171.5 58.5 171.2 59 171.1 59.2 171 59.3 170.8 59.8 170.7 60.2 170.6 60.7 170.3 61.4 170 61.8 169.7 62.3 169.5 62.9 169.4 63.7 169.3 64.4 169 65.3 168.8 65.7 168.1 67.3 168 72 168.6 73.8 170.1 78.6 173.7 81.9 178.1 82.5 180.5 82.9 181.2 82.7 185.8 80.2 187.3 79.5 189.8 77.4 191.7 75.4 195.2 71.7 195.4 71.2 194.1 69.8 192.6 68.3 192.3 68.4 189.2 71.3 187.9 72.6 186.6 73.8 186.4 74 186.1 74.1 185.7 74.4 185.4 74.7 185.1 75 184.7 75.2 184.6 75.2 184.5 75.2 184 75.4 183.6 75.8 182.1 76.7 179.6 77 178.6 76.2 178 75.7 177.6 72.7 178 71.8 178.2 71.5 180.6 70.2 181.5 69.9 181.7 69.8 182.1 69.6 182.4 69.5 182.6 69.3 183.2 69 183.6 68.9 184.3 68.6 185.5 67.9 186.6 67.2 186.9 66.9 187.6 66.5 188.1 66.2 189.8 65 192.5 62.1 194 59.6 194.6 58.6 195.4 56.7 195.6 55.5 195.7 54.7 196 53.7 196.1 53.3 196.2 52.9 196.4 51.9 196.5 51.1L196.5 49.7 195.9 48.9C194.8 47.6 193.8 46.6 192.9 46 191.8 45.3 188.5 44.4 188.1 44.7M326.2 44.7C326.1 44.8 325.4 44.9 324.6 45.1 323.6 45.2 322.8 45.5 322 45.9 320.6 46.7 318.7 48 318.3 48.3 318.2 48.5 317.7 48.9 317.1 49.3 316.6 49.7 316.1 50.2 315.9 50.4 315.8 50.6 315.5 51 315.4 51.1 315.2 51.3 314.7 51.9 314.2 52.5 313.8 53.1 313.2 53.8 312.9 54.1 312.4 54.8 311.9 55.5 311.2 56.8 310.9 57.4 310.6 57.9 310.4 58 310.3 58.1 310.1 58.6 309.9 59.1 309.8 59.5 309.4 60.3 309.2 60.8 308.9 61.3 308.6 62.1 308.6 62.6 308.5 63 308.3 63.8 308.1 64.2 307 66.8 307 72.9 308.2 75.1 308.4 75.6 308.7 76.2 308.7 76.3 308.7 76.5 308.8 76.9 309.1 77.1 309.3 77.4 309.6 77.8 309.7 78.1 309.9 78.4 310.4 79 310.9 79.4 311.4 79.8 312 80.4 312.4 80.7 312.7 81.1 313.2 81.4 313.5 81.4 313.8 81.5 314.5 81.7 314.9 82 316.1 82.6 318.5 82.6 319.6 82.1 320 81.9 320.8 81.6 321.3 81.4 321.9 81.3 322.7 80.9 323.1 80.7 323.5 80.5 324.1 80.1 324.5 79.9 324.9 79.7 325.8 79.2 326.5 78.7 327.2 78.3 327.9 77.8 328.2 77.6 328.8 77.2 330.7 75.3 331.2 74.5 331.5 74.2 331.7 73.8 331.8 73.8 332 73.8 334.7 70.1 334.7 69.8 334.7 69.7 335 69 335.3 68.3 336.6 65.6 337 64.5 337.2 62.5 337.3 61.6 337.5 60.4 337.6 60 338 58.8 337.9 56 337.5 54.2 337.3 53.4 337.1 52.6 337.1 52.4 336.9 51.6 335.3 50.2 333.6 49.5 332.3 48.9 331.8 48.6 331.4 48.1 329.6 45.7 326.9 44 326.2 44.7M160.3 51.6C160.6 51.9 160.4 53.1 159.9 54.1 159.7 54.6 159.5 55.4 159.3 55.9 159.2 56.5 158.9 57.3 158.7 57.8 158.4 58.2 158.2 58.8 158.1 59.2 158 59.5 157.8 60.1 157.5 60.4 157.3 60.8 157 61.4 156.8 61.8 156.7 62.1 156.5 62.6 156.2 62.8 156 63.1 155.7 63.6 155.6 63.9 155.4 64.3 154.9 65.2 154.4 66 153.8 66.7 153.2 67.7 153 68 151.3 70.6 146.6 75.8 145.4 76.4 144.4 76.9 143.9 75.8 144.7 74.8 144.9 74.5 145.2 74 145.3 73.5 145.5 73 146 71.8 146.5 70.9 147 70 147.5 69 147.7 68.6 147.9 68.2 148.1 67.7 148.3 67.4 148.4 67.1 148.8 66.5 149 66 149.3 65.5 149.7 64.9 149.8 64.7 150 64.6 150.3 64.1 150.4 63.7 150.6 63.4 150.9 62.9 151.1 62.6 151.6 62 153 59.9 153 59.7 153 59.7 153.4 59.1 154 58.4 155.2 56.8 156.2 55.4 156.7 54.6 157 54.3 157.3 53.9 157.5 53.9 157.6 53.8 158.1 53.3 158.4 52.8 159.6 51.2 159.9 51.1 160.3 51.6M329.7 54.3C330.3 54.8 330 61.9 329.3 63.4 329.1 63.9 328.8 64.8 328.7 65.5 328.5 66.2 328.2 66.9 328 67.2 327.8 67.4 327.6 67.9 327.4 68.2 326.6 70.3 322.8 74.7 321.3 75.3 320.9 75.5 320.3 75.8 319.9 76.1 318.4 77.1 317.2 76.7 316.7 75 316.3 73.6 316.9 69.6 317.8 67.6 318.1 67 318.3 66.3 318.4 66 318.5 65.8 318.7 65.2 319 64.9 319.2 64.5 319.5 64 319.6 63.6 319.7 63.2 320 62.7 320.2 62.5 320.4 62.3 320.9 61.7 321.2 61.2 322.2 59.7 322.4 59.5 323.1 58.6 324 57.6 326.5 55.4 327.2 55.1 327.5 54.9 328 54.6 328.2 54.4 328.8 53.9 329.3 53.9 329.7 54.3M235.4 55.1C235.5 55.4 235.5 55.6 235.1 56.2 234.9 56.6 234.6 57.2 234.5 57.5 234.4 57.8 234 58.4 233.7 58.9 233.4 59.3 233.2 59.8 233.2 59.9 233.2 60 233 60.4 232.7 60.7 232.5 61 232.2 61.6 232 62 231.8 62.4 231.5 62.9 231.4 63.1 231.2 63.3 230.8 63.8 230.6 64.2 230.3 64.7 229.9 65.4 229.6 65.8 229.3 66.3 228.8 67 228.5 67.5 228.2 68 227.6 68.9 227.2 69.4 226.7 70 226.1 70.8 225.8 71.2 225.1 72.2 223.1 74 222.7 74 221.8 74 221.7 72.3 222.5 70.5 222.7 69.9 223 69.1 223.1 68.8 223.1 68.4 223.4 67.7 223.7 67.3 223.9 66.9 224.2 66.3 224.3 65.9 224.5 65.6 224.8 64.9 225.1 64.5 225.4 64.1 225.7 63.6 225.7 63.6 225.7 63.4 226.3 62.6 228.3 59.9 229 59 231.7 56.3 232 56.3 232.1 56.3 232.4 56.1 232.8 55.8 233.3 55.3 234.5 54.7 235 54.7 235.1 54.7 235.3 54.8 235.4 55.1M73.3 55.4C73.3 57.4 69.1 62.6 66.5 63.6 65.3 64.1 65.5 62.7 66.9 60.8 67.1 60.5 67.4 60 67.6 59.7 68.9 57.1 73.3 53.8 73.3 55.4M188 55.4C188.4 56.2 187 58.5 184.7 60.8 182.1 63.4 181.6 63.8 181 63.8 180.3 63.8 180.4 62.7 181.1 61.6 181.4 61.2 181.7 60.8 181.7 60.7 181.7 60.6 182 60.1 182.4 59.6 182.8 59 183.2 58.6 183.2 58.5 183.2 58.3 185.5 56 186.2 55.5 187.2 54.9 187.8 54.8 188 55.4M255.5 73.9C255.6 75.9 250.6 81.8 249.7 80.6 248.8 79.4 251.5 75.3 254.3 73.7 255.3 73.1 255.4 73.1 255.5 73.9" fill="#ddd"/></svg>